<svg xmlns="http://www.w3.org/2000/svg" viewBox="0 0 544.89 505.91">
  <g id="Calque_2" data-name="Calque 2">
    <g id="Calque_1-2" data-name="Calque 1">
      <path id="Est" d="M544.71,404c-.57,1.2-1.88.85-4.67,2.69-2.53,1.67-2.23,2.48-3.74,3.16-3.58,1.6-6.81-2.54-8.87-.83s-2.29,6.62-.2,9.31c1.47,1.9,3.81,2.34,3.68,3.44-.1.85-1.5.83-2.57,1.75-2.85,2.47,1.06,7.86-1.05,12.69-1.23,2.82-2.8,1.5-8.94,7.29-5.8,5.47-5.9,8.07-5.9,8.76,0,1.5.57,2.53.08,4.43a8.84,8.84,0,0,1-2.49,4c-3.51,3.61-5.16,8.91-5.67,10.53-2.52,8.05,2.9,12.76-.82,18.34-1.12,1.67-1.7,1.39-2.86,3.19-2.64,4.12-1.95,9.29-.87,13.17L283,484.23a7,7,0,0,1-1.69-3.5c-.54-3.71,2.76-5.93,6-10.56,1.26-1.82,7.63-11,5.8-19.9-.67-3.28-1.91-3.9-1.47-6.24,1-5.19,7.76-5.51,8.37-9.71.44-3.07-3-3.92-7.62-11.35-3.09-5-1.76-5-5.21-10.8s-5.32-6.68-6.95-11.48c-1.4-4.1-.35-4.38-1.77-6.82-2.68-4.61-6.77-4.24-8.33-8.46-1.17-3.15.49-5.1-.88-6.15-2-1.51-7.74.58-9.85,4.39-.81,1.46-1,2.94-2.65,4.67-1.23,1.25-1.81,1.14-2.78,2-2.73,2.48-.73,5.76-2.73,9s-7.58,5.12-10.86,3.63c-2.23-1-2.69-3.2-4.59-3.15s-1.87,1.92-3.91,2.65c-1.86.65-2.75-.56-10.73-4.42-2.09-1-3-1.42-3.54-2.53-1.06-2.33,1-5.1.25-5.68s-3,2.44-5.3,1.9c-1.59-.37-1.51-2-3.28-2.53-2.24-.71-3.86,1.37-5.05.63s.11-3.19-.38-6.56c-.82-5.65-5.92-8.08-4.8-10.35.7-1.42,2.83-.76,3.79-2.53.86-1.59,0-3.66-.76-5.3-1.65-3.78-3.58-3.92-4-6.69-.39-2.37.78-3.72-.12-4.55-1.1-1-3.27.65-4.67-.5-.75-.61-.4-1.29-1-3-1-3-2.72-2.95-3-4.93s1.44-2.46,1.64-5.3c0-.29.22-3.86-1.85-5.32-1.92-1.35-3.77.54-6.61-.74-2.26-1-1.8-2.55-3.53-3.15-3.2-1.12-5.44,3.85-11.37,4.42-3.05.29-3.13-1-6-.41-4.23.83-5.32,3.77-7.94,3.25-1.66-.32-1.76-1.61-4.46-3.85-.56-.47-3.55-3-6.38-3.61-5.33-1.24-7.51,4.61-14.44,5.3-5.82.58-5.87-3.38-11.92-3.09-7.89.37-12.26,7.29-17.21,5-1.5-.69-1.95-1.71-3.61-1.8-3.51-.2-5.3,4.11-6.82,3.57-2-.7.79-8.1-2.21-16.93-.81-2.39-1-1.84-2.65-5.95-3.36-8.45-1.85-9.12-4-12.35-3.27-5-7.1-3.79-11.2-10-1.66-2.52-.91-2.54-2.76-5.3-1.58-2.33-5-7.45-10.6-8.54-2.89-.57-3.62.48-5-.49-3.14-2.11,0-7.39-2.89-11.91-2.53-4-5.88-1.39-12.52-6.5a67.62,67.62,0,0,1-5.41-5.09,6.25,6.25,0,0,0-4.1-1.89c-2.12-.11-4,.77-5.06-.36s0-2.4-.84-4.1-2.72-1.93-4.69-3c-4.33-2.35-3-5.89-7.59-10.35C3.3,233.19,0,233.28,0,231.49c.06-2.06,4.54-2.4,9.15-6.5a22.2,22.2,0,0,0,5.06-6.62l.48-41.4c9.35-1.93,11.75-4.32,12-6.26.4-2.72-3.36-4.42-4-8.91-.47-3.49,1.24-6.64,2.83-8.82,2.68-.27,2.86-5.18,7.4-6.25,2.8-.67,3.43,1,6.64.38,3.59-.73,4-3.11,8-4.21,2.35-.65,3.2-.11,5.62-.26,5.27-.33,8.25-3.33,12-5.62,3.31-2,8.56-4.3,16.63-4.74,4.77-1.06,10.8-1.57,14.39,1.81,3.74,3.52,2.4,9,5.87,10.47,2.68,1.13,4.15-1.87,11.23-3.83s7.48.51,14.55-1.68c2.79-.86,5.34-2.05,7.92-.88,1.67.76,1.65,1.72,3.45,2.56,2.24,1,3.49.1,7.9-.19,5.68-.36,7.48.94,8.95-.58s.54-3.62,2.17-4.6c1.22-.72,2,.33,3.83-.12,2.36-.58,2.56-2.64,5.36-4.34,1.72-1.05,2.18-.6,4.28-1.45,5.77-2.33,5.33-7,10.91-9.15,1.77-.69,2.91-.64,4.21-1.91,1.61-1.56,1.77-3.46,2.17-5,.58-2.19,1.37-2.58,8.05-9.83,4.95-5.39,7.43-8.08,8.55-9.7,2.26-3.3,2.55-4.56,4.72-6.26,1.7-1.32,2.35-1.2,7.41-3.7,4.79-2.38,4.06-2.42,6.12-3.19,4.65-1.74,7-1,8.43-3.07,1-1.46.07-2.16.89-4,1.67-3.63,6.21-2.2,11-6.13,3.51-2.89,3.78-5.91,6-5.87s2.37,3,5.28,3.72c1.66.43,4-.69,8.76-3,3.07-1.47,4.61-2.21,5.24-2.93,2.75-3.17.17-6.36,2.84-9.69,2.35-2.93,4.6-1.9,7.31-5s3.85-8.18,2.1-9.93c-1.59-1.59-4.68.35-6-1.28-1.51-1.88,1.23-6.17.26-6.76-.77-.48-2.73,2.1-3.83,1.53s-.11-2.78-1.15-3.45-3.14,1.65-4.45,1c-1.55-.78,0-4.78-1.68-6.1-.77-.62-2.42-.81-6.38,1.41L259.33,0a109.31,109.31,0,0,1,34.09,12.52A73.52,73.52,0,0,1,307.23,22.7c4.57,4.4,5.49,6.59,10.6,13.12C329,50.11,331.23,48.18,337.5,58.14c3.82,6.07,2.9,6.71,9.49,17.86,3.67,6.22,4.94,7.67,6.36,11.39,2.77,7.22,2.32,13.1,2.15,19.44A229.44,229.44,0,0,0,356.75,137c-1.47,15.4.58,19.81,2.82,20.87a6.2,6.2,0,0,1,3.22,2.32c.92,1.51.36,2.72.39,5.45,0,2,.07,6.08,2.25,7.9,1.45,1.22,2.9.63,5.58.89,5.66.54,9.68,4.18,11.24,5.58,2.5,2.25,4.16,5.61,7.5,12.33,2.67,5.38,3.2,7.57,5.79,8.79s5,.42,6.2,2.25c1,1.53.21,3.64,0,4.23-.89,2.5-2.68,2.91-3.75,4.63-.93,1.5-1.2,3.86,1,9.4,2.16,5.39,4.61,8.65,11.37,17.65,6.42,8.55,6.92,9.22,8.45,10.76,3.76,3.77,5.13,4.08,9.47,8.52a48.53,48.53,0,0,1,7.7,9.33c3.55,5.86,2.36,7.45,5.72,11.72,2,2.56,2.23,1.72,7.7,7,3.73,3.56,5.63,5.41,7.5,8.31s1.24,2.94,3.91,8.46c3.71,7.68,6.13,10.23,7,11.1,2.21,2.22,4.52,4.55,6.95,4.08,2.87-.55,3.67-4.6,5.92-4.36,1.38.15,1.39,1.69,3.75,2.87,1.75.87,2.25.28,4.43.95a13.72,13.72,0,0,1,5.93,3.95c2,2.12,1.45,2.77,3.29,4.44,2.23,2,3.27,1.3,5,3,2.27,2.28,1,4.06,3.1,6.2,1.89,1.93,4.65,2.25,7.08,2.53,3.48.41,3.53-.57,5.81.06,3.39.93,3.19,3.09,7.12,4.32,1.65.51,2.82.48,3.72,1.59a5.08,5.08,0,0,1,.81,3.17c.46,7.76,1.15,9.1,1.49,9.67.92,1.56,1.34,1,2.48,2.83,1.73,2.81.86,4.3,2.39,6.2s2.93,1,4.43,2.82c1.79,2.2,2.14,6.34.44,8-.78.76-2.32,1.3-2.66,2.84a3.12,3.12,0,0,0,0,.39,28.69,28.69,0,0,0,.13,8.1,38.93,38.93,0,0,0,2.69,9.2C543.86,401.13,545.42,402.5,544.71,404Z" style="fill: #ca281b"/>
    </g>
  </g>
</svg>
