<svg xmlns="http://www.w3.org/2000/svg" viewBox="0 0 378.14 210.87">
  <g id="Calque_2" data-name="Calque 2">
    <g id="Calque_1-2" data-name="Calque 1">
      <path id="Nord" d="M375.2,102.71c-2.71,3.12-5,2.09-7.31,5-2.67,3.33-.09,6.52-2.84,9.69-.63.72-2.17,1.46-5.24,2.93-4.71,2.27-7.1,3.39-8.76,3-2.91-.75-3.09-3.68-5.28-3.72s-2.49,3-6,5.87c-4.77,3.93-9.31,2.5-11,6.13-.82,1.79.13,2.49-.89,3.95-1.44,2.06-3.78,1.33-8.43,3.07-2.06.77-1.33.81-6.12,3.19-5.06,2.5-5.71,2.38-7.41,3.7-2.17,1.7-2.46,3-4.72,6.26-1.12,1.62-3.6,4.31-8.55,9.7-6.68,7.25-7.47,7.64-8.05,9.83-.4,1.52-.56,3.42-2.17,5-1.3,1.27-2.44,1.22-4.21,1.91-5.58,2.17-5.14,6.82-10.91,9.15-2.1.85-2.56.4-4.28,1.45-2.8,1.7-3,3.76-5.36,4.34-1.86.45-2.61-.6-3.83.12-1.63,1-.73,3.1-2.17,4.6s-3.27.22-8.95.58c-4.41.29-5.66,1.22-7.9.19-1.8-.84-1.78-1.8-3.45-2.56-2.58-1.17-5.13,0-7.92.88-7.07,2.19-7.46-.29-14.55,1.68s-8.55,5-11.23,3.83c-3.47-1.47-2.13-6.95-5.87-10.47-3.59-3.38-9.62-2.87-14.39-1.81-8.07.44-13.32,2.72-16.63,4.74-3.75,2.29-6.73,5.29-12,5.62-2.42.15-3.27-.39-5.62.26-4,1.1-4.45,3.48-8,4.21-3.21.65-3.84-1.05-6.64-.38-4.54,1.07-4.72,6-7.4,6.25-4.67.46-5.26-14.25-16.64-21.37-2.63-1.64-5.29-2.53-9.38-5.94s-3.91-4.68-6.86-6.64c-5.12-3.4-8.64-1.63-14.66-3.73-3.18-1.1-7.45-3.42-11.74-8.83l-24,.67c4.83-5.91,5.06-9.29,4.26-11.31-.86-2.18-2.72-2.3-3-4.32-.57-3.94,6.07-6.5,5.31-10-.4-1.85-2.37-1.78-3.1-3.91-1.08-3.14,2.5-5.25,3.11-8.43,1.73-9.07-22.42-17.94-20.88-28.11.4-2.59,2.28-4.07,1.59-7.21-.79-3.63-3.79-3.9-4.6-7.54s1.89-5.27.8-8.63c-.73-2.28-2.06-1.83-5-5.12-4.68-5.22-3.9-9.21-7.83-10.84-1.14-.47-2.35-.62-2.91-1.71-.66-1.27.3-2.4.32-4.3,0-2.33-1.35-3.93-2.23-5.23-1.45-2.13-3-5.6-3.6-11.44a24.15,24.15,0,0,1,7.15-7c3.67-2.31,6.18-2.4,9.35-3.81,6.45-2.86,5.77-6.88,11.28-11,4.1-3.08,6.07-2.24,18.36-5.3,14.53-3.62,12.49-5,18.71-5.55C78.26,2.92,81.61,9.76,91,6.42,97.77,4,99.23-.69,104.47.08c2.78.4,5.4,2.43,10.62,6.5,3.46,2.68,3.33,3,6.44,5.38,4.79,3.62,7.18,5.42,10.6,6.3,4.9,1.27,6.27-.77,13.45,0,4.48.48,5.37,1.43,8.7,2,9.59,1.7,12.44-4.31,22-4.85,7.78-.45,7.62,3.47,24.8,8,9.57,2.5,8.57,1,16.19,3.28,14.6,4.36,18.3,9.83,24.92,7.7,5.35-1.72,5.74-6.2,11.25-6.5,3.68-.2,4.25,1.75,10.71,2.84,5.93,1,6.55-.45,10.26.88,5.1,1.83,4.92,4.93,9.24,6.08,4,1.08,5-1.41,11.44-1.92,2.57-.2,9.48-.75,15,3.11,4,2.77,3.92,5.48,8.51,7.32,2.86,1.15,3.8.46,6.13,2,2.77,1.85,3,3.87,5.86,4.85,1.61.55,1.91,0,4,.46,3.67.74,3.72,2.52,6.59,3.38,4.72,1.43,8-2.34,12.14-.11a7,7,0,0,1,1.51,1.1l-.78,21.24c4-2.22,5.61-2,6.38-1.41,1.67,1.32.13,5.32,1.68,6.1,1.31.66,3.26-1.74,4.45-1s.19,3,1.15,3.45,3.06-2,3.83-1.53c1,.59-1.77,4.88-.26,6.76,1.32,1.63,4.41-.31,6,1.28C379.05,94.53,378,99.54,375.2,102.71Z" style="fill: #A52117"/>
    </g>
  </g>
</svg>
