<svg xmlns="http://www.w3.org/2000/svg" viewBox="0 0 343.42 522.24">
  <g id="Calque_2" data-name="Calque 2">
    <g id="Calque_1-2" data-name="Calque 1">
      <path id="Ouest" d="M343.42,277.62c-2.92,8.55-6.41,11.15-9.12,11.9-1.78.5-4.21.46-4.73,1.85-.61,1.6,2.12,3.08,2,5.39-.11,2.08-2.46,3.39-5.59,5.22-9.63,5.61-14.45,8.41-15.79,10.17-2,2.68-2.82,5.39-5.87,6.4-1.28.43-1.6.11-4.3.62-2.89.54-4.75.89-6.58,2.1-2.72,1.81-2.77,3.79-5.08,4.21-1.27.23-1.35-.34-2.9-.17a8.71,8.71,0,0,0-5.35,3.16c-1.44,1.66-.72,1.89-2.19,3.68-1.86,2.25-3.11,2-4.47,4.21-.8,1.29-.62,1.77-1.5,2.72-1.24,1.35-2.34,1.17-3.42,1.9-3.06,2-.28,7.28-3.42,11.17-2,2.42-3.83,1.35-5,3.51-1.84,3.39,2.55,6.54,1.43,11.4-.36,1.56-2.33,3.51-6.25,7.37-4.4,4.32-6.6,6.48-9.3,8-5.28,2.94-6.71,1.33-9.73,3.94-3.89,3.36-1.42,5.93-5.79,11.32-2.77,3.41-5.15,4.09-8,8.87-1.34,2.27-.74,2-1.8,3.6-3.92,5.92-9.48,5.49-11.05,10.18a7.57,7.57,0,0,1-1.57,3.36c-1.09,1.17-2,1.18-3.41,1.88-3.34,1.71-2.67,4.2-6.87,7.74-1.67,1.4-1.73,1-3.21,2.34-2,1.87-2.54,3.24-4.84,4.94-1,.73-1.19.7-2,1.27-3.68,2.51-2.78,5.25-5.91,8.6s-6.43,3.41-6.66,6.06c-.08.88.23,1.69-.36,2.54-.77,1.13-2.07.86-2.75,2-.52.87.06,1.36-.2,2.44-.58,2.34-3.77,2-4.74,4.28-.86,2.05,1.1,3.83,0,5.19-.88,1.09-2.5.37-3.25,1.32-.93,1.18,1.54,2.87,1.64,5.83.07,2-.93,2.13-3,6.95-1.65,3.82-1.17,4.05-2.39,5.8-1.36,1.95-2.13,1.9-4.07,4.53-1.54,2.08-1.05,2.09-2.39,3.72-1.66,2-2.87,2.55-3.21,4.27-.22,1.11.24,1.14,0,2.19-.52,2.28-2.75,2.39-3.05,4.33-.19,1.16.61,1.22.66,3.15a19.08,19.08,0,0,1-.61,3.41c-.52,2.28-.69,2.58-1,2.85-.82.78-1.55.29-2.5.94-2.39-3.23-4.6-4.21-6.18-4.5s-2.65,0-3.57-.94c-1.08-1.11-.58-2.6-2-3.67-.68-.51-1.06-.36-1.5-.94-.72-.93,0-1.72-.47-2.72-.72-1.6-3.07-.8-4.51-2.63-1-1.27-.57-2.53-1.35-2.79-.94-.32-1.63,1.47-3.19,1.95-1.93.58-3.8-1.26-8.2-4.94-6.57-5.49-6.82-5.08-7.65-6.59-2.06-3.74,0-5.25-1.48-10.55-1.63-5.75-4.37-5.08-6.47-11.19s0-8.61-2.82-11.52c-2.39-2.48-5.4-2.19-6.16-4.82a6.13,6.13,0,0,1,.68-4.44c1.07-1.85,2.61-2,2.8-3.6.15-1.19-.63-1.77-.21-2.78s1.21-1.09,1.76-1.46c2-1.38,1.28-5.66,1.09-8.37-.36-5.24,1.44-4.33,2.29-13.32.47-5.08.73-7.87-.13-11.61-.71-3.09-1.54-3.95-1.55-6.69,0-4,1.7-4.39,1.73-8,0-3.26-1.35-5.73-3.39-9.35-1.73-3.09-2.6-4.63-4.48-6.06a19.48,19.48,0,0,0-8.72-3.48c-2.09-.29-3.36-.1-4.12-1.1s0-2.41,0-4.76c0-3.53-1.76-3.8-2.2-7.24-.41-3.22,1.1-3.49,1.74-9.81.44-4.39-.17-5.47-.83-6-1.27-.95-2.91.16-3.92-.89s.28-2.76-.65-4.33-3-1.11-5.13-2.11c-3-1.38-2.73-4-5.33-8-4.42-6.81-10.43-7.35-10.17-11.14.14-2.21,2.24-3,1.73-4.91-.26-1-.91-1.25-4.57-3.74-4-2.74-4.59-3.32-5-4.2-.77-1.49-.35-2.15-1.26-3.59a7.71,7.71,0,0,0-3.5-2.8c-2.55-1.18-13.6-6.92-19-15.14-2-3-1-3-3.79-7.8-4-6.86-6-6.78-7.91-10.61-3.3-6.53,1.32-8.85.31-23.33-.41-5.83-1.59-11.65.44-12.55,1.25-.55,2.86,1.11,3.38.59.68-.7-2-3.88-5.19-9.5A43.87,43.87,0,0,1,1.39,216c-1.21-3.66-1.82-5.49-1-7.25,1.22-2.73,4.37-2.78,4.88-5.61.27-1.47-.35-2.7.45-3.35.57-.47,1.15,0,2.27-.19a5.32,5.32,0,0,0,4.3-4.11c.2-1.73-1.16-2.9-.64-3.47s1.9.69,3.23.12.8-2.17,2.33-4.17,3-1.45,4-3.34c.85-1.66.13-2.86,1.2-3.79.73-.64,1.28-.28,2.59-.7,2.81-.9,3.45-3.59,4.56-3.32s.36,2.28,1.76,3.64c1.13,1.1,2.49.69,6.7.82,4.71.15,4.76.72,6.76.38,2.78-.48,4.34-1.88,6.52-3.4,4.64-3.23,7.28-3.67,11.18-5.64a53.15,53.15,0,0,0,22.5-21.43c1.26-2.57,2.27-8.83,4.3-21.37,2.75-16.92,1.89-19.89,1.07-21.84-4.81-11.47-6.1-13.39-6.1-13.39a7.83,7.83,0,0,1-1.5-3.74c-.24-2.48,1-4.15,2.47-6.86,1.88-3.52,3.28-6.13,3.74-9.42s-.36-5.15.75-9.85c.39-1.62.8-2.74,1.72-3.1,1.5-.61,2.8,2.59,4.86,2.37,1.8-.19,3.48-2.83,2.89-4.09-.71-1.53-4.26,0-5.63-1.73-1.78-2.3,2.62-6.84.61-10.08-1-1.66-3.14-2-3-2.71s2.68-.18,5-2c1.13-.86,1.15-1.5,2-1.63,1.29-.23,1.89,1.33,4.09,2.76s5.44,2.44,7.33,1.18c.76-.51.67-1,1.28-1.18,1.61-.49,2.87,2.74,5.94,4.76a13.46,13.46,0,0,0,12.39.77c1.82-.85,1.5-1.34,3.63-2.35,3.49-1.67,8.57-2.38,9.73-.47.78,1.28-.17,3.78-1.74,4.77-1.83,1.15-4.27.09-4.45.66-.13.38.82,1.24,2,1.64,2.7.91,4.23-1.44,6.81-.66,1.83.54,2.29,2.08,3.49,1.79a2.25,2.25,0,0,0,1.58-2.1c-.1-2-4.16-2.4-4.4-4.71-.09-.85.44-.95.46-2.36,0-1.79-.8-2.91-.56-3.07s1.38,1.7,3,2.76c3.79,2.45,9.64-.2,10.44-.56,4.43-2,4.55-4.45,8.65-5.43,3-.72,3.47.47,5.78-.18,4-1.14,3.94-5.14,9.31-12.21,2.72-3.57,6.1-7.9,11.48-9.21,2.12-.52,2.13,0,4-.6,6.22-2.1,9.21-9.29,9.52-10.06,1-2.43.62-3,1.6-4.26,2.1-2.76,6-3.38,9.13-3.44.55,5.84,2.15,9.31,3.6,11.44.88,1.3,2.26,2.9,2.23,5.23,0,1.9-1,3-.32,4.3.56,1.09,1.77,1.24,2.91,1.71,3.93,1.63,3.15,5.62,7.83,10.84,2.95,3.29,4.28,2.84,5,5.12,1.09,3.36-1.63,4.91-.8,8.63s3.81,3.91,4.6,7.54c.69,3.14-1.19,4.62-1.59,7.21-1.54,10.17,22.61,19,20.88,28.11-.61,3.18-4.19,5.29-3.11,8.43.73,2.13,2.7,2.06,3.1,3.91.76,3.54-5.88,6.1-5.31,10,.29,2,2.15,2.14,3,4.32.8,2,.57,5.4-4.26,11.31l24-.67c4.29,5.41,8.56,7.73,11.74,8.83,6,2.1,9.54.33,14.66,3.73,2.95,2,2.64,3.12,6.86,6.64s6.75,4.3,9.38,5.94c11.38,7.12,12,21.83,16.64,21.37-1.59,2.18-3.3,5.33-2.83,8.82.61,4.49,4.37,6.19,4,8.91-.28,1.94-2.68,4.33-12,6.26l-.48,41.4a22.2,22.2,0,0,1-5.06,6.62c-4.61,4.1-9.09,4.44-9.15,6.5-.05,1.79,3.3,1.7,7.1,5.42,4.57,4.46,3.26,8,7.59,10.35,2,1.08,3.83,1.2,4.69,3s-.1,3.07.84,4.1,2.94.25,5.06.36A6.25,6.25,0,0,1,343.42,277.62Z" style="fill: #831B13"/>
    </g>
  </g>
</svg>
