<svg xmlns="http://www.w3.org/2000/svg" viewBox="0 0 676.84 453.75">
  <g id="Calque_2" data-name="Calque 2">
    <g id="Calque_1-2" data-name="Calque 1">
      <path id="Sud" d="M676.83,368.59a16.56,16.56,0,0,1-2.05,7c-3.26,7-6.24,6.2-9.1,12.47-1.62,3.55-1.75,6.18-4.37,7.62-1.47.81-2,.31-4,1.25-2.67,1.28-3.19,2.9-5.62,5-2.86,2.48-3.38,1.31-6.38,3.63-4.19,3.25-4,6.16-8,8-1.16.53-1,.2-3.7,1-7.71,2.18-8.39,4.64-11.67,4.16s-3.65-3.1-7.25-3.12c-2.28,0-2.46,1-4.83,1.06-4,0-5-2.93-7.42-2.19s-4.58,4.93-4.57,6.57a1,1,0,0,1-.18.69c-.6.74-2.45.15-3,0-2.6-.72-4.91.39-8.38,1.12-6.9,1.45-7.93-.82-15,.5-3.76.7-6.38,1.88-10.25,3.63-6,2.71-6.9,6-11.38,6.37-2.55.24-2.79-.61-6.75-.37-3.06.18-4.13.76-7.5,1.25a48.91,48.91,0,0,1-7.87.37c-5.28,0-10.4,0-16.5-1.62a31.12,31.12,0,0,0-5.75-1.38c-2.21-.21-7.38-.72-9.13,1.88-1.39,2.05.25,4.75-1.51,6.11-.68.52-1,.19-2.25.76-1.89.87-2.37,2.26-3.49,3.38-2,2-5,2.08-6.88,2.12-4.54.11-5.2-2.31-9-2.37-1.25,0-2.49.22-9.62,4.5-8.3,5-9.27,6.25-11.13,5.75-3.53-1-2.58-6.29-7.25-9-2.09-1.23-2.78-.44-10.87-.63-10-.23-11.74-1.49-14.75.38-2.25,1.38-2.7,3-5.63,3.87-1.92.6-2.45.14-5.71.78-3.7.73-3.75,1.46-5.55,1.34-2-.14-2.2-1.08-6.16-3s-4.43-1.23-5.95-2.57c-2.46-2.16-1.81-4.31-4.21-5.95-1.64-1.12-2.73-.65-4.72-1.13-6.89-1.65-7.49-10.54-12.8-10.94-.79-.06-2.4.69-5.62,2.2-6.69,3.13-6.37,4.05-8.66,4.62-6.76,1.66-13.36-7.4-17.32-5.15a4.36,4.36,0,0,1-2.89.91c-1.28-.18-1.53-1.13-2.88-1.29s-1.51.62-2.89.68c-1.9.09-2.31-1.33-3.8-1.36-2.58-.05-3.9,4.17-5.24,3.79-1-.27-.32-2.48-1.74-5.31-1.13-2.23-3.55-4.89-5.93-4.71-1.22.09-1.61.87-2.81.68-1.36-.21-2.12-1.41-2.89-2.35,0,0-.91-1.13-5.62-4.41-5-3.47-8.94.68-16.18-2-4.41-1.63-3.83-3.5-9.92-6.08-3.75-1.58-5.1-1.35-8.74-2.51-7.8-2.49-8.65-8-13.69-7.78-1.69.07-2.82.65-5.18.23-2.79-.51-3.1-1.65-5.1-1.51-2.28.17-3.05,1.74-5.2,1.36-1.22-.22-1.14-.76-2.14-.89-2.89-.39-4.82,3.9-6.52,3.32-.74-.25-.48-1.1-1.77-3.69-1-1.95-1.9-3.8-3.48-4.15-1.33-.29-2.34.63-2.67.23-.54-.67,1.94-3.4,1.61-3.72s-2.64,2.6-4.65,2.09c-1.45-.38-1.35-2.2-3.1-3.11-1.54-.8-2.47.15-4.67.15-4.47,0-5.3-4-10.48-4.55-2.25-.25-2.52.45-4.36-.12-2.26-.69-4.93-2.68-5.25-5.18-.17-1.27.4-1.73-.07-2.56-.84-1.51-3.08-.78-3.94-2.1s1-2.84.59-5.06c-.56-2.85-4.47-4.29-5.11-4.52-2.9-1.07-4.37-.15-9.19-.33a51.52,51.52,0,0,1-6.89-.92c-8-1.37-12.26-2.1-17.52-4.33-2.51-1.07-6.18-3.53-13.52-8.47-4-2.72-6.72-4.68-7.55-8-.46-1.85.11-2.26-.33-4.33-.54-2.57-1.88-4.14-6.23-8.6-4.78-4.9-8.52-8.51-9.26-9.22-3.29-3.17-4.93-4.75-5.24-5-5-4.25-10-6.15-15.18-8-14.22-5-21.32-7.44-30.36-9-12.67-2.22-19-3.34-23.73-3.27a21.22,21.22,0,0,1-8.19-1.1c-5.92-2.15-11.58-7.6-10.75-11.63.55-2.68,3.56-2.8,3.66-5.43s-3.06-3.66-3.33-7.53c-.12-1.74.5-1.78.45-3.55-.11-3.35-2.39-5.79-4.32-7.86s-4.53-4.85-8.53-5.76c-1.9-.44-3.34-.28-4-1.33a3.92,3.92,0,0,1,1.08-4.69c1-.65,1.68-.16,2.5-.94.28-.27.45-.57,1-2.85a19.08,19.08,0,0,0,.61-3.41c0-1.93-.85-2-.66-3.15.3-1.94,2.53-2.05,3.05-4.33.24-1.05-.22-1.08,0-2.19.34-1.72,1.55-2.28,3.21-4.27,1.34-1.63.85-1.64,2.39-3.72,1.94-2.63,2.71-2.58,4.07-4.53,1.22-1.75.74-2,2.39-5.8,2.09-4.82,3.09-5,3-7-.1-3-2.57-4.65-1.64-5.83.75-1,2.37-.23,3.25-1.32,1.1-1.36-.86-3.14,0-5.19,1-2.29,4.16-1.94,4.74-4.28.26-1.08-.32-1.57.2-2.44.68-1.13,2-.86,2.75-2,.59-.85.28-1.66.36-2.54.23-2.65,3.63-2.81,6.66-6.06s2.23-6.09,5.91-8.6c.84-.57,1-.54,2-1.27,2.3-1.7,2.81-3.07,4.84-4.94,1.48-1.37,1.54-.94,3.21-2.34,4.2-3.54,3.53-6,6.87-7.74,1.37-.7,2.32-.71,3.41-1.88a7.57,7.57,0,0,0,1.57-3.36c1.57-4.69,7.13-4.26,11-10.18,1.06-1.6.46-1.33,1.8-3.6,2.82-4.78,5.2-5.46,8-8.87,4.37-5.39,1.9-8,5.79-11.32,3-2.61,4.45-1,9.73-3.94,2.7-1.5,4.9-3.66,9.3-8,3.92-3.86,5.89-5.81,6.25-7.37,1.12-4.86-3.27-8-1.43-11.4,1.17-2.16,3.05-1.09,5-3.51,3.14-3.89.36-9.15,3.42-11.17,1.08-.73,2.18-.55,3.42-1.9.88-1,.7-1.43,1.5-2.72,1.36-2.22,2.61-2,4.47-4.21,1.47-1.79.75-2,2.19-3.68A8.71,8.71,0,0,1,143,47.69c1.55-.17,1.63.4,2.9.17,2.31-.42,2.36-2.4,5.08-4.21,1.83-1.21,3.69-1.56,6.58-2.1,2.7-.51,3-.19,4.3-.62,3-1,3.84-3.72,5.87-6.4,1.34-1.76,6.16-4.56,15.79-10.17,3.13-1.83,5.48-3.14,5.59-5.22.13-2.31-2.6-3.79-2-5.39.52-1.39,3-1.35,4.73-1.85C194.54,11.15,198,8.55,201,0a67.62,67.62,0,0,0,5.41,5.09c6.64,5.11,10,2.53,12.52,6.5,2.88,4.52-.25,9.8,2.89,11.91,1.43,1,2.16-.08,5,.49,5.58,1.09,9,6.21,10.6,8.54,1.85,2.76,1.1,2.78,2.76,5.3,4.1,6.2,7.93,5,11.2,10,2.12,3.23.61,3.9,4,12.35,1.64,4.11,1.84,3.56,2.65,6,3,8.83.22,16.23,2.21,16.93,1.52.54,3.31-3.77,6.82-3.57,1.66.09,2.11,1.11,3.61,1.8,4.95,2.28,9.32-4.64,17.21-5,6-.29,6.1,3.67,11.92,3.09,6.93-.69,9.11-6.54,14.44-5.3,2.83.66,5.82,3.14,6.38,3.61,2.7,2.24,2.8,3.53,4.46,3.85,2.62.52,3.71-2.42,7.94-3.25,2.88-.56,3,.7,6,.41,5.93-.57,8.17-5.54,11.37-4.42,1.73.6,1.27,2.13,3.53,3.15,2.84,1.28,4.69-.61,6.61.74s1.87,5,1.85,5.32c-.2,2.84-2,3.24-1.64,5.3s2,2,3,4.93c.61,1.74.26,2.42,1,3,1.4,1.15,3.57-.51,4.67.5.9.83-.27,2.18.12,4.55.46,2.77,2.39,2.91,4,6.69.72,1.64,1.62,3.71.76,5.3-1,1.77-3.09,1.11-3.79,2.53-1.12,2.27,4,4.7,4.8,10.35.49,3.37-.85,5.8.38,6.56s2.81-1.34,5.05-.63c1.77.56,1.69,2.16,3.28,2.53,2.35.54,4.48-2.5,5.3-1.9s-1.31,3.35-.25,5.68c.51,1.11,1.45,1.52,3.54,2.53,8,3.86,8.87,5.07,10.73,4.42,2-.73,2.15-2.61,3.91-2.65s2.36,2.13,4.59,3.15c3.28,1.49,8.76-.26,10.86-3.63s0-6.51,2.73-9c1-.88,1.55-.77,2.78-2,1.69-1.73,1.84-3.21,2.65-4.67,2.11-3.81,7.89-5.9,9.85-4.39,1.37,1-.29,3,.88,6.15,1.56,4.22,5.65,3.85,8.33,8.46,1.42,2.44.37,2.72,1.77,6.82,1.63,4.8,3.54,5.79,6.95,11.48s2.12,5.78,5.21,10.8c4.58,7.43,8.06,8.28,7.62,11.35-.61,4.2-7.38,4.52-8.37,9.71-.44,2.34.8,3,1.47,6.24,1.83,8.9-4.54,18.08-5.8,19.9-3.21,4.63-6.51,6.85-6,10.56a7,7,0,0,0,1.69,3.5l216.85,21.68a27.72,27.72,0,0,0-3.52,11c-.85,8.82,3.47,11.86,2.69,21.45-.5,6.18-2.4,6.14-2.29,11.57.14,7.43,3.69,8.11,5.18,16,1.64,8.63-.69,18.17-1.69,22.25-.61,2.48-1.93,7.18-.2,12.27.56,1.64.84,1.57,1.49,3.49,1.68,4.92.27,6.68,1.12,11.74C675.06,364.23,677,364.48,676.83,368.59Z" style="fill: #EA2E1F"/>
    </g>
  </g>
</svg>
